# xmcd
#
# Track frame offsets:
#	150
#	16282
#	29380
#	41353
#	58251
#	75316
#	91378
#	101876
#	113304
#	120716
#	127368
#	141590
#	151665
#	160985
#
# Disc length: 2372 seconds
#
# Revision: 1
# Processed by: cddbd v1.5.2PL0 Copyright (c) Steve Scherf et al.
# Submitted via: audiograbber 1.83.01
#
DISCID=b409420e
DTITLE=Manimal Quartet - Manhorse 3, The Meatbag - Verses - Hapless and Seething
DYEAR=2012
DGENRE=
TTITLE0=Manimal Quartet - Darkly, a Western Wind
TTITLE1=Manimal Quartet - Wildestance
TTITLE2=Manimal Quartet - Milking the Moon
TTITLE3=Manimal Quartet - Motive
TTITLE4=Manimal Quartet - Ode to Our Lady
TTITLE5=Manimal Quartet - Erste Chimey
TTITLE6=Manhorse 3, The Meatbag - My Saline Best
TTITLE7=Manhorse 3, The Meatbag - Naked Sentry
TTITLE8=Manhorse 3, The Meatbag - My Love is a Monster
TTITLE9=Manhorse 3, The Meatbag - Miss Mirror
TTITLE10=Manhorse 3, The Meatbag - GIFTS
TTITLE11=Manhorse 3, The Meatbag - Dim Traditions
TTITLE12=Manhorse 3, The Meatbag - Kiss the Stars
TTITLE13=Manhorse 3, The Meatbag - Alien Train (a dark return)
EXTD=Album of two 12" records. One by Manimal Quartet, one by Manhorse 3, The M
EXTD=eatbag.
EXTT0=
EXTT1=
EXTT2=
EXTT3=
EXTT4=
EXTT5=
EXTT6=
EXTT7=
EXTT8=
EXTT9=
EXTT10=
EXTT11=
EXTT12=
EXTT13=
PLAYORDER=
